<svg xmlns="http://www.w3.org/2000/svg" width="40" height="49" viewBox="0 0 40 49">
  <g id="form:select-lang" transform="translate(-8.25 -3)">
    <rect id="長方形_50" data-name="長方形 50" width="40" height="39.912" rx="19.956" transform="translate(8.25 3)" fill="#e5e5e5"/>
    <g id="グループ_36" data-name="グループ 36" transform="translate(18.25 12.728)">
      <circle id="楕円形_6" data-name="楕円形 6" cx="10" cy="10" r="10" transform="translate(0 0.243)" fill="none" stroke="#666" stroke-miterlimit="10" stroke-width="1"/>
      <ellipse id="楕円形_7" data-name="楕円形 7" cx="8.141" cy="10.004" rx="8.141" ry="10.004" transform="translate(1.62)" fill="none" stroke="#666" stroke-miterlimit="10" stroke-width="1"/>
      <ellipse id="楕円形_8" data-name="楕円形 8" cx="4.708" cy="10.004" rx="4.708" ry="10.004" transform="translate(5.052)" fill="none" stroke="#666" stroke-miterlimit="10" stroke-width="1"/>
      <line id="線_48" data-name="線 48" y2="20" transform="translate(10 0.243)" fill="none" stroke="#666" stroke-miterlimit="10" stroke-width="1"/>
      <line id="線_49" data-name="線 49" x2="20" transform="translate(0 10.243)" fill="none" stroke="#666" stroke-miterlimit="10" stroke-width="1"/>
      <line id="線_50" data-name="線 50" x2="17.193" transform="translate(1.164 15.122)" fill="none" stroke="#666" stroke-miterlimit="10" stroke-width="1"/>
      <line id="線_51" data-name="線 51" x2="17.193" transform="translate(1.164 4.885)" fill="none" stroke="#666" stroke-miterlimit="10" stroke-width="1"/>
    </g>
    <path id="パス_278" data-name="パス 278" d="M-19.4.059a.078.078,0,0,0,.082.082h3.495a.078.078,0,0,0,.082-.082V-.647a.078.078,0,0,0-.082-.082h-2.559a.044.044,0,0,1-.049-.049V-5.356a.078.078,0,0,0-.082-.082h-.8a.078.078,0,0,0-.082.082Zm4.167,0c-.016.049,0,.082.057.082h.8a.1.1,0,0,0,.107-.082l.369-1.083h2.1l.369,1.083a.1.1,0,0,0,.107.082h.8c.057,0,.074-.033.057-.082l-1.887-5.414a.106.106,0,0,0-.107-.082h-.755a.106.106,0,0,0-.107.082Zm1.624-1.944.747-2.166h.025l.738,2.166ZM-9.539.059a.078.078,0,0,0,.082.082h.714A.078.078,0,0,0-8.662.059V-3.781h.033L-6.348.059a.144.144,0,0,0,.139.082h.747A.078.078,0,0,0-5.38.059V-5.356a.078.078,0,0,0-.082-.082h-.714a.078.078,0,0,0-.082.082v3.847h-.033L-8.563-5.356A.144.144,0,0,0-8.7-5.438h-.755a.078.078,0,0,0-.082.082ZM-4-1.115A1.925,1.925,0,0,0-2.009.231,1.939,1.939,0,0,0-.04-1.139,4.593,4.593,0,0,0,.091-2.361v-.484a.078.078,0,0,0-.082-.082H-1.836a.078.078,0,0,0-.082.082v.656a.078.078,0,0,0,.082.082h.919a.044.044,0,0,1,.049.049,2.309,2.309,0,0,1-.09.722,1.051,1.051,0,0,1-1.058.7,1.014,1.014,0,0,1-1.05-.73,4.449,4.449,0,0,1-.1-1.28,4.408,4.408,0,0,1,.1-1.28,1.014,1.014,0,0,1,1.05-.73,1.189,1.189,0,0,1,1.124.689.086.086,0,0,0,.107.041l.689-.3a.091.091,0,0,0,.033-.115A1.964,1.964,0,0,0-2.009-5.528,1.925,1.925,0,0,0-4-4.183,4.515,4.515,0,0,0-4.15-2.649,4.515,4.515,0,0,0-4-1.115ZM3.34-.639a1.064,1.064,0,0,1-1.083-1.2V-5.356a.078.078,0,0,0-.082-.082h-.8a.078.078,0,0,0-.082.082V-1.82A1.933,1.933,0,0,0,3.34.231,1.935,1.935,0,0,0,5.4-1.82V-5.356a.078.078,0,0,0-.082-.082h-.8a.078.078,0,0,0-.082.082v3.519A1.065,1.065,0,0,1,3.34-.639Zm2.8.7c-.016.049,0,.082.057.082h.8A.1.1,0,0,0,7.1.059l.369-1.083h2.1L9.936.059a.1.1,0,0,0,.107.082h.8c.057,0,.074-.033.057-.082L9.017-5.356a.106.106,0,0,0-.107-.082H8.155a.106.106,0,0,0-.107.082ZM7.762-1.886l.747-2.166h.025l.738,2.166Zm3.856.771A1.925,1.925,0,0,0,13.611.231a1.939,1.939,0,0,0,1.969-1.37,4.593,4.593,0,0,0,.131-1.222v-.484a.078.078,0,0,0-.082-.082H13.783a.078.078,0,0,0-.082.082v.656a.078.078,0,0,0,.082.082H14.7a.044.044,0,0,1,.049.049,2.309,2.309,0,0,1-.09.722,1.051,1.051,0,0,1-1.058.7,1.014,1.014,0,0,1-1.05-.73,4.449,4.449,0,0,1-.1-1.28,4.408,4.408,0,0,1,.1-1.28,1.014,1.014,0,0,1,1.05-.73,1.189,1.189,0,0,1,1.124.689.086.086,0,0,0,.107.041l.689-.3a.091.091,0,0,0,.033-.115,1.964,1.964,0,0,0-1.944-1.181,1.925,1.925,0,0,0-1.993,1.345,4.515,4.515,0,0,0-.148,1.534A4.515,4.515,0,0,0,11.617-1.115ZM16.941.059a.078.078,0,0,0,.082.082h3.495A.078.078,0,0,0,20.6.059V-.647a.078.078,0,0,0-.082-.082H17.958a.044.044,0,0,1-.049-.049V-2.189a.044.044,0,0,1,.049-.049h2.158A.078.078,0,0,0,20.2-2.32v-.705a.078.078,0,0,0-.082-.082H17.958a.044.044,0,0,1-.049-.049V-4.519a.044.044,0,0,1,.049-.049h2.559A.078.078,0,0,0,20.6-4.65v-.705a.078.078,0,0,0-.082-.082H17.023a.078.078,0,0,0-.082.082Z" transform="translate(27.65 51.769)" fill="#666"/>
  </g>
</svg>
