<svg xmlns="http://www.w3.org/2000/svg" width="32" height="26.02" viewBox="0 0 32 26.02">
  <g id="icon-tw" transform="translate(-0.798 -3.833)">
    <path id="パス_4" data-name="パス 4" d="M94.134,133.363c12.083,0,18.69-10.013,18.69-18.69,0-.286,0-.572-.014-.845a13.458,13.458,0,0,0,3.283-3.406,13.333,13.333,0,0,1-3.774,1.035,6.565,6.565,0,0,0,2.888-3.637,13.3,13.3,0,0,1-4.169,1.594,6.573,6.573,0,0,0-11.361,4.5,6.021,6.021,0,0,0,.177,1.5,18.635,18.635,0,0,1-13.541-6.866,6.566,6.566,0,0,0,2.043,8.759,6.453,6.453,0,0,1-2.97-.817v.082a6.576,6.576,0,0,0,5.272,6.444,6.548,6.548,0,0,1-1.73.232,6.271,6.271,0,0,1-1.24-.123,6.559,6.559,0,0,0,6.13,4.564,13.2,13.2,0,0,1-8.16,2.806,11.945,11.945,0,0,1-1.567-.1,18.3,18.3,0,0,0,10.04,2.97" transform="translate(-83.296 -103.51)"/>
  </g>
</svg>
