<svg xmlns="http://www.w3.org/2000/svg" width="34.065" height="24" viewBox="0 0 34.065 24">
  <g id="icon-yt" transform="translate(-8 -34)">
    <path id="パス_7" data-name="パス 7" d="M41.353,37.748a4.28,4.28,0,0,0-3.012-3.031C35.685,34,25.032,34,25.032,34s-10.652,0-13.309.717a4.28,4.28,0,0,0-3.012,3.031A44.9,44.9,0,0,0,8,46a44.9,44.9,0,0,0,.712,8.252,4.28,4.28,0,0,0,3.012,3.031C14.38,58,25.032,58,25.032,58s10.652,0,13.309-.717a4.28,4.28,0,0,0,3.012-3.031A44.9,44.9,0,0,0,42.065,46,44.9,44.9,0,0,0,41.353,37.748Z" transform="translate(0)" fill="#c4302b"/>
    <path id="パス_8" data-name="パス 8" d="M78,79.8V69.831l8.764,4.986Z" transform="translate(-56.377 -28.817)" fill="#fff"/>
  </g>
</svg>
