<svg xmlns="http://www.w3.org/2000/svg" width="90.516" height="20.609" viewBox="0 0 90.516 20.609">
  <path id="logo" d="M239.685,120.863l2.351-4.661L238.05,108.3h2.665l2.65,5.265,2.656-5.265h2.516L242.2,120.863Zm40.9-3.868v-5.66a3.38,3.38,0,0,0-3.379-3.374,3.486,3.486,0,0,0-2.213.777,3.478,3.478,0,0,0-2.212-.777,3.332,3.332,0,0,0-2.116.763l-1.264-.448v8.719h2.33v-5.809a1.047,1.047,0,0,1,2.094,0v5.809h2.33v-5.809a1.05,1.05,0,0,1,2.1,0v5.809Zm-14.709-.446v.446h2.069v-8.712l-1.922.595a4.7,4.7,0,1,0-.148,7.671Zm-.011-3.888a2.478,2.478,0,0,1-4.957,0,2.479,2.479,0,1,1,4.957,0Zm24.9,1.6h-2.4a2.5,2.5,0,0,1-1.92.931,2.476,2.476,0,0,1-2.371-1.785h6.9a5.183,5.183,0,0,0,.068-.747,4.695,4.695,0,1,0-.28,1.6Zm-6.613-2.556a2.458,2.458,0,0,1,4.586,0ZM237.5,113.352h-2.633a3.263,3.263,0,0,1-2.9,1.683,3.7,3.7,0,1,1,0-7.4,3.224,3.224,0,0,1,2.651,1.314h2.737a6.026,6.026,0,1,0,.147,4.4Zm60.906,3.451a2.509,2.509,0,0,0,1.538-2.311c0-1.566-1.345-2.534-4-2.876-1.152-.145-1.736-.464-1.736-.949,0-.364.38-.79,1.451-.79.962,0,1.545.407,1.685.91H299.8c-.4-1.9-1.772-2.848-4.06-2.848a5.412,5.412,0,0,0-2.45.566,2.518,2.518,0,0,0-1.41,2.31c0,1.588,1.3,2.555,3.854,2.876,1.2.15,1.88.5,1.88.952,0,.378-.646.786-1.7.786-1.135,0-1.917-.407-1.979-1.194h-2.393c.136,1.991,1.838,3.131,4.3,3.131A6.153,6.153,0,0,0,298.411,116.8Zm-40.85-.528v-7.992l-1.924.595a4.7,4.7,0,1,0-.468,7.872,2.351,2.351,0,0,1-2.313,1.9,2.388,2.388,0,0,1-1.921-.984H248.36a4.707,4.707,0,0,0,9.2-1.389Zm-2.185-3.619a2.478,2.478,0,1,1-4.956,0,2.511,2.511,0,0,1,2.478-2.478A2.543,2.543,0,0,1,255.375,112.656Zm-37.947-7.772c1.041-.039,3.116.538,4.725-.234a6.018,6.018,0,0,0,2.976-3.258c.123-.228-.182-.393-.3-.219-.752,1.127-2.4,2.862-6.106,1.754a4.155,4.155,0,0,0-5.134,2.022s0-1.018,0-1.064a.076.076,0,0,0-.069-.078c-.042,0-.082.069-.082.069a5.579,5.579,0,0,1-1.465,3.063v.381a4.254,4.254,0,0,1-2.109.9c-.889.134-.128,1.448-.128,1.448a1.063,1.063,0,0,1,.485-.437l.44.725.051-.891c.107-.023.218-.042.329-.055l.256.632.176-.663c.235-.007.462,0,.656.015a.367.367,0,0,1,.275.573c-.209.307-.448.647-.473.675l-.349-.394.109.712h0a.623.623,0,0,0-.068.692l.6-.22a.154.154,0,0,1-.069-.148c0-.184.251-.4.632-.712,1.447-1.179,2.9.682,1.137,2.293-1.32,1.208-1.674,2.094-1.674,2.456v0a.32.32,0,0,0-.177.284h0a.322.322,0,0,0,.3.32,1.635,1.635,0,0,1-.068,2.084.782.782,0,0,0-.556.275l-.024.029a.785.785,0,0,0,.026,1.038c.008.008.017.014.026.023h-.236l-.7,1.364.7,1.364h9.511l.7-1.364-.7-1.364h-.262a.748.748,0,0,0,.055-.052l.024-.028a.783.783,0,0,0-.577-1.287,1.637,1.637,0,0,1-.067-2.082.321.321,0,0,0,.3-.319h0a.32.32,0,0,0-.173-.281v-.008a2.794,2.794,0,0,0,.03-1.929c-.139-.374.168-.473.454-.408a4.182,4.182,0,0,1,1.6.882c1.1.866.981,1.25,1.22,1.147s.058-.843-.812-1.946a7.651,7.651,0,0,0-2.741-2.118c-.439-.267-.376-.519-.056-.57a3.551,3.551,0,0,1,2.181.556c.238.136.49.358.583.226.077-.108,0-.332-.4-.643-1.677-1.377-3.537-1.534-3.794-1.956-.129-.282-.06-.554.8-.788a3.739,3.739,0,0,1,1.519-.035c.2.039.227-.2-.089-.343-1.892-.82-3.075-.165-3.823-.617A.8.8,0,0,1,217.428,104.884Z" transform="translate(-209.432 -101.101)" fill="#fff"/>
</svg>
