<svg xmlns="http://www.w3.org/2000/svg" width="88.519" height="17" viewBox="0 0 88.519 17">
  <g id="txt_language" transform="translate(-15.5 -16.971)">
    <g id="グループ_128" data-name="グループ 128" transform="translate(-665.298 -275.35)">
      <circle id="楕円形_6" data-name="楕円形 6" cx="8" cy="8" r="8" transform="translate(681.299 292.821)" fill="none" stroke="#666" stroke-miterlimit="10" stroke-width="1"/>
      <ellipse id="楕円形_7" data-name="楕円形 7" cx="6.137" cy="8" rx="6.137" ry="8" transform="translate(683.161 292.821)" fill="none" stroke="#666" stroke-miterlimit="10" stroke-width="1"/>
      <ellipse id="楕円形_8" data-name="楕円形 8" cx="4.708" cy="8" rx="4.708" ry="8" transform="translate(684.59 292.821)" fill="none" stroke="#666" stroke-miterlimit="10" stroke-width="1"/>
      <line id="線_48" data-name="線 48" y2="16" transform="translate(689.299 292.821)" fill="none" stroke="#666" stroke-miterlimit="10" stroke-width="1"/>
      <line id="線_49" data-name="線 49" x2="16" transform="translate(681.299 300.821)" fill="none" stroke="#666" stroke-miterlimit="10" stroke-width="1"/>
      <line id="線_50" data-name="線 50" x2="13.185" transform="translate(682.706 304.914)" fill="none" stroke="#666" stroke-miterlimit="10" stroke-width="1"/>
      <line id="線_51" data-name="線 51" x2="13.185" transform="translate(682.706 296.728)" fill="none" stroke="#666" stroke-miterlimit="10" stroke-width="1"/>
    </g>
    <path id="パス_279" data-name="パス 279" d="M-19.4,3.692a.128.128,0,0,0,.135.135H-13.5a.128.128,0,0,0,.135-.135V2.528a.128.128,0,0,0-.135-.135h-4.224a.072.072,0,0,1-.081-.081V-5.244a.128.128,0,0,0-.135-.135h-1.327a.128.128,0,0,0-.135.135Zm6.878,0c-.027.081,0,.135.095.135h1.313a.163.163,0,0,0,.176-.135l.609-1.787h3.466l.609,1.787a.163.163,0,0,0,.176.135H-4.75c.095,0,.122-.054.095-.135L-7.769-5.244a.175.175,0,0,0-.176-.135H-9.191a.175.175,0,0,0-.176.135ZM-9.841.484l1.232-3.574h.041L-7.35.484Zm6.716,3.209a.128.128,0,0,0,.135.135h1.178a.128.128,0,0,0,.135-.135V-2.644h.054L2.142,3.692a.238.238,0,0,0,.23.135H3.6a.128.128,0,0,0,.135-.135V-5.244A.128.128,0,0,0,3.6-5.379H2.426a.128.128,0,0,0-.135.135v6.35H2.236l-3.75-6.35a.238.238,0,0,0-.23-.135H-2.99a.128.128,0,0,0-.135.135ZM6.014,1.756A3.176,3.176,0,0,0,9.3,3.977a3.2,3.2,0,0,0,3.25-2.261A7.581,7.581,0,0,0,12.77-.3v-.8a.128.128,0,0,0-.135-.135H9.588a.128.128,0,0,0-.135.135V-.017a.128.128,0,0,0,.135.135H11.1A.072.072,0,0,1,11.186.2a3.812,3.812,0,0,1-.149,1.191A1.735,1.735,0,0,1,9.29,2.542,1.673,1.673,0,0,1,7.557,1.337,7.343,7.343,0,0,1,7.395-.776a7.275,7.275,0,0,1,.162-2.112A1.673,1.673,0,0,1,9.29-4.093a1.962,1.962,0,0,1,1.855,1.137.142.142,0,0,0,.176.068l1.137-.5a.15.15,0,0,0,.054-.19A3.242,3.242,0,0,0,9.3-5.528a3.176,3.176,0,0,0-3.29,2.22A7.452,7.452,0,0,0,5.77-.776,7.452,7.452,0,0,0,6.014,1.756Zm12.118.785A1.756,1.756,0,0,1,16.345.565V-5.244a.128.128,0,0,0-.135-.135H14.882a.128.128,0,0,0-.135.135V.592a3.19,3.19,0,0,0,3.385,3.385A3.194,3.194,0,0,0,21.53.592V-5.244a.128.128,0,0,0-.135-.135H20.068a.128.128,0,0,0-.135.135V.565A1.758,1.758,0,0,1,18.132,2.542Zm4.617,1.151c-.027.081,0,.135.095.135h1.313a.163.163,0,0,0,.176-.135l.609-1.787h3.466l.609,1.787a.163.163,0,0,0,.176.135h1.327c.095,0,.122-.054.095-.135L27.5-5.244a.175.175,0,0,0-.176-.135H26.08a.175.175,0,0,0-.176.135ZM25.43.484l1.232-3.574H26.7L27.921.484Zm6.364,1.273a3.176,3.176,0,0,0,3.29,2.22,3.2,3.2,0,0,0,3.25-2.261A7.581,7.581,0,0,0,38.55-.3v-.8a.128.128,0,0,0-.135-.135H35.368a.128.128,0,0,0-.135.135V-.017a.128.128,0,0,0,.135.135h1.516A.072.072,0,0,1,36.965.2a3.812,3.812,0,0,1-.149,1.191A1.735,1.735,0,0,1,35.07,2.542a1.673,1.673,0,0,1-1.733-1.205,7.343,7.343,0,0,1-.162-2.112,7.275,7.275,0,0,1,.162-2.112A1.673,1.673,0,0,1,35.07-4.093a1.962,1.962,0,0,1,1.855,1.137.142.142,0,0,0,.176.068l1.137-.5a.15.15,0,0,0,.054-.19,3.242,3.242,0,0,0-3.209-1.95,3.176,3.176,0,0,0-3.29,2.22A7.452,7.452,0,0,0,31.55-.776,7.452,7.452,0,0,0,31.793,1.756ZM40.58,3.692a.128.128,0,0,0,.135.135h5.768a.128.128,0,0,0,.135-.135V2.528a.128.128,0,0,0-.135-.135H42.259a.072.072,0,0,1-.081-.081V-.017A.072.072,0,0,1,42.259-.1H45.82a.128.128,0,0,0,.135-.135V-1.4a.128.128,0,0,0-.135-.135H42.259a.072.072,0,0,1-.081-.081V-3.863a.072.072,0,0,1,.081-.081h4.224a.128.128,0,0,0,.135-.135V-5.244a.128.128,0,0,0-.135-.135H40.716a.128.128,0,0,0-.135.135Z" transform="translate(57.4 26.246)" fill="#666"/>
  </g>
</svg>
